<svg version="1.2" xmlns="http://www.w3.org/2000/svg" viewBox="0 0 542 542" width="542" height="542"><style>.s0{fill:#e76f00;stroke:#ffffff;paint-order:stroke fill markers;stroke-linejoin:round;stroke-width:38}.s1{fill:#5382a1;stroke:#ffffff;paint-order:stroke fill markers;stroke-linejoin:round;stroke-width:38}</style><path class="s0" d="m404.1 426.9h-2v-1.1h5.5v1.1h-2.1v5.7h-1.4zm10.9 0.3l-2 5.4h-0.9l-2-5.4h-0.1v5.4h-1.3v-6.8h2l1.8 4.8l1.9-4.8h2v6.8h-1.4z" /><path class="s1" d="m329 305.1c-11.9-4.7-20.4-10-20.4-10c-32.4 6.1-47.4 6.6-76.8 3.3c-24.3-2.8-10.1-11.1-10.1-11.1c-57.1 16 34.7 48.9 107.3 17.8zm6.6-39.6c-9.3-3.3-15.3-9.3-15.3-9.3c-42.9 8.3-67.7 8-99.1 4.8c-24.3-2.5-8.4-14.3-8.4-14.3c-62.8 20.9 35 44.5 122.8 18.8z" /><path class="s0" d="m354 76.2c-80.9 46.9-66 60.5-46.5 87.9c20.9 29.4-24.6 52.8-24.6 52.8c0 0 22.6-18.5 4.7-39.1c-60.6-69.9 66.4-101.6 66.4-101.6z" /><path fill-rule="evenodd" class="s1" d="m383.7 317.4c0 0 10.5 8.6-11.6 15.3c-41.9 12.7-174.5 16.5-211.3 0.5c-13.2-5.8 11.6-13.7 19.4-15.4c8.2-1.8 12.8-1.5 12.8-1.5c-14.7-10.3-95.1 20.4-40.8 29.2c148 24 269.9-10.8 231.5-28.1zm-155.2-112.8c0 0-67.4 16-23.9 21.8c18.4 2.5 55.1 2 89.2-0.9c27.9-2.4 55.9-7.4 55.9-7.4c0 0-9.8 4.2-16.9 9.1c-68.5 18-200.8 9.6-162.7-8.8c32.2-15.5 58.4-13.8 58.4-13.8zm121 67.6c69.6-36.1 37.4-70.9 14.9-66.2c-5.5 1.1-7.9 2.1-7.9 2.1c0 0 2-3.2 5.9-4.6c44.4-15.6 78.6 46.1-14.3 70.6c0 0 1-1 1.4-1.9z" /><path class="s0" d="m307.5 0.4c0 0 38.5 38.6-36.6 97.9c-60.2 47.5-13.7 74.6 0 105.6c-35.2-31.7-61-59.6-43.6-85.6c25.4-38.1 95.7-56.6 80.2-117.9z" /><path class="s1" d="m235.3 370.2c66.9 4.3 169.5-2.3 171.9-33.9c0 0-4.7 11.9-55.2 21.5c-57.1 10.7-127.4 9.4-169.1 2.6c0 0 8.5 7 52.4 9.8z" /><path fill-rule="evenodd" class="s0" d="m228.1 510.7l-1.3-9.2c-7.5 6.4-15.5 10.9-26.3 10.9c-16.7 0-25.6-8.6-25.6-23.6c0-17.4 13.5-29 43.4-29h6.1v-7.6c0-10.3-5.3-15.2-17.6-15.2c-8.9 0-17.9 2.4-24.9 4.9l-2.5-10.7c8.8-3.9 19.7-7 32.2-7c21.3 0 30.2 10.2 30.2 25.7v60.8zm-3.8-39.8h-7.3c-19.8 0-24.7 6.5-24.7 15.4c0 8.2 4.6 13.3 13.1 13.3c6 0 12.6-3.1 18.9-8.6zm75.5 39.8h-21.7l-26.1-85h18.9l16.2 52.2l3.6 15.7c8.2-22.7 14-45.7 16.9-67.9h18.4c-4.9 28-13.8 58.7-26.2 85zm86.9 0l-1.3-9.2c-7.5 6.5-15.6 10.9-26.3 10.9c-16.7 0-25.6-8.5-25.6-23.5c0-17.4 13.5-29 43.3-29h6.2v-7.7c0-10.2-5.3-15.2-17.6-15.2c-8.9 0-17.9 2.4-24.9 5l-2.6-10.8c8.9-3.9 19.8-7 32.3-7c21.3 0 30.2 10.2 30.2 25.8v60.7zm-3.8-39.8h-7.3c-19.8 0-24.8 6.5-24.8 15.4c0 8.2 4.7 13.3 13.2 13.3c5.9 0 12.6-3.1 18.9-8.5zm-227.2 54.2c-4.9 7.2-12.9 12.9-21.7 16.2l-8.6-10.1c6.7-3.5 12.4-9 15.1-14.1c2.3-4.6 3.2-10.5 3.2-24.6v-97h18.5v95.6c0 18.9-1.5 26.5-6.5 34z" /></svg>