<svg version="1.2" xmlns="http://www.w3.org/2000/svg" viewBox="0 0 512 512" width="512" height="512"><defs><linearGradient id="P" gradientUnits="userSpaceOnUse"/><linearGradient id="g1" x1="8234.3" y1="2867.4" x2="3439.5" y2="14012.3" href="#P"><stop stop-color="#41873f"/><stop offset="32.9" stop-color="#418b3d"/><stop offset="63.5" stop-color="#419637"/><stop offset="93.2" stop-color="#3fa92d"/><stop offset="100" stop-color="#3fae2a"/></linearGradient><clipPath clipPathUnits="userSpaceOnUse" id="cp1"><path d="m240.63 199.44c1.73 1.03 2.89 3 2.89 5.08v56.29c0 2.07-1.04 4.04-2.89 5.08l-48.66 28.09q-0.67 0.38-1.42 0.58q-0.75 0.19-1.53 0.2q-0.77-0.01-1.52-0.2q-0.75-0.2-1.42-0.58l-48.66-28.09c-1.73-1.04-2.89-3.01-2.89-5.08v-56.29c0-2.08 1.04-4.05 2.89-5.09l48.66-28.08q0.67-0.38 1.42-0.58q0.75-0.2 1.52-0.2q0.78 0 1.53 0.2q0.75 0.2 1.42 0.58z" /></clipPath><linearGradient id="g2" x1="5039.2" y1="8671.8" x2="18179.2" y2="-2650" href="#P"><stop offset="13.8" stop-color="#41873f"/><stop offset="40.3" stop-color="#54a044"/><stop offset="71.4" stop-color="#66b848"/><stop offset="90.8" stop-color="#6cc04a"/></linearGradient><clipPath clipPathUnits="userSpaceOnUse" id="cp2"><path d="m240.63 199.44c1.73 1.03 2.89 3 2.89 5.08v56.29c0 2.07-1.04 4.04-2.89 5.08l-48.66 28.09q-0.67 0.38-1.42 0.58q-0.75 0.19-1.53 0.2q-0.77-0.01-1.52-0.2q-0.75-0.2-1.42-0.58l-48.66-28.09c-1.73-1.04-2.89-3.01-2.89-5.08v-56.29c0-2.08 1.04-4.05 2.89-5.09l48.66-28.08q0.67-0.38 1.42-0.58q0.75-0.2 1.52-0.2q0.78 0 1.53 0.2q0.75 0.2 1.42 0.58z" /></clipPath><linearGradient id="g3" x1="146.1" y1="161.1" x2="229.3" y2="161.1" href="#P"><stop offset="9.2" stop-color="#6cc04a"/><stop offset="28.6" stop-color="#66b848"/><stop offset="59.7" stop-color="#54a044"/><stop offset="86.2" stop-color="#41873f"/></linearGradient><linearGradient id="g4" x1="-358.8" y1="7887" x2="11613.2" y2="7887" href="#P"><stop offset="9.2" stop-color="#6cc04a"/><stop offset="28.6" stop-color="#66b848"/><stop offset="59.7" stop-color="#54a044"/><stop offset="86.2" stop-color="#41873f"/></linearGradient><linearGradient id="g5" x1="233.3" y1="264.6" x2="245.1" y2="264.6" href="#P"><stop offset="9.2" stop-color="#6cc04a"/><stop offset="28.6" stop-color="#66b848"/><stop offset="59.7" stop-color="#54a044"/><stop offset="86.2" stop-color="#41873f"/></linearGradient><linearGradient id="g6" x1="-2953.5" y1="854.5" x2="3240.6" y2="854.5" href="#P"><stop offset="9.2" stop-color="#6cc04a"/><stop offset="28.6" stop-color="#66b848"/><stop offset="59.7" stop-color="#54a044"/><stop offset="86.2" stop-color="#41873f"/></linearGradient><linearGradient id="g7" x1="4142.9" y1="-2224.9" x2="322.8" y2="2637.5" href="#P"><stop stop-color="#41873f"/><stop offset="32.9" stop-color="#418b3d"/><stop offset="63.5" stop-color="#419637"/><stop offset="93.2" stop-color="#3fa92d"/><stop offset="100" stop-color="#3fae2a"/></linearGradient></defs><style>.s0{fill:#539e43;stroke:#ffffff;paint-order:stroke fill markers;stroke-linejoin:round;stroke-width:38}.s1{fill:#333333;stroke:#ffffff;paint-order:stroke fill markers;stroke-linejoin:round;stroke-width:38}.s2{fill:url(#g1);stroke:#ffffff;paint-order:stroke fill markers;stroke-linejoin:round;stroke-width:38}.s3{fill:none;stroke:#ffffff;paint-order:stroke fill markers;stroke-linejoin:round;stroke-width:38}.s4{fill:url(#g2);stroke:#ffffff;paint-order:stroke fill markers;stroke-linejoin:round;stroke-width:38}.s5{fill:url(#g3);stroke:#ffffff;paint-order:stroke fill markers;stroke-linejoin:round;stroke-width:38}.s6{fill:url(#g4);stroke:#ffffff;paint-order:stroke fill markers;stroke-linejoin:round;stroke-width:38}.s7{fill:url(#g5);stroke:#ffffff;paint-order:stroke fill markers;stroke-linejoin:round;stroke-width:38}.s8{fill:url(#g6);stroke:#ffffff;paint-order:stroke fill markers;stroke-linejoin:round;stroke-width:38}.s9{fill:url(#g7);stroke:#ffffff;paint-order:stroke fill markers;stroke-linejoin:round;stroke-width:38}</style><path fill-rule="evenodd" class="s0" d="m253.1 412.1c-1.7 0-3.3-0.5-4.8-1.3l-15.4-9.1c-2.3-1.3-1.2-1.7-0.5-2c3.1-1 3.7-1.2 7-3.1c0.3-0.2 0.8-0.1 1.1 0.1l11.8 7.1c0.5 0.2 1 0.2 1.4 0l46.1-26.7c0.5-0.3 0.7-0.7 0.7-1.3v-53.3c0-0.6-0.2-1-0.7-1.2l-46.1-26.6c-0.5-0.3-1.1-0.3-1.4 0l-46.1 26.6c-0.5 0.2-0.7 0.8-0.7 1.2v53.3c0 0.5 0.2 1 0.7 1.3l12.6 7.3c6.8 3.4 11.1-0.6 11.1-4.7v-52.6c0-0.6 0.6-1.3 1.4-1.3h5.9c0.7 0 1.3 0.5 1.3 1.3v52.6c0 9.2-4.9 14.5-13.6 14.5c-2.6 0-4.7 0-10.6-2.9l-12.2-6.9c-3-1.8-4.8-5-4.8-8.5v-53.3c0-3.4 1.8-6.7 4.8-8.4l46.2-26.7c2.8-1.6 6.8-1.6 9.7 0l46.1 26.7c3 1.7 4.8 5 4.8 8.4v53.3c0 3.5-1.8 6.7-4.8 8.5l-46.1 26.7c-1.5 0.6-3.3 1-4.9 1zm14.2-36.6c-20.2 0-24.4-9.3-24.4-17.1c0-0.7 0.6-1.4 1.4-1.4h6c0.7 0 1.3 0.4 1.3 1.1c0.9 6.1 3.6 9.2 15.8 9.2c9.8 0 13.9-2.2 13.9-7.4c0-3.1-1.1-5.2-16.3-6.7c-12.6-1.3-20.4-4.1-20.4-14.1c0-9.4 7.8-15 21-15c14.8 0 22.1 5.1 23 16.2q0 0.5-0.4 1.1c-0.2 0.2-0.5 0.4-0.9 0.4h-6c-0.6 0-1.1-0.4-1.3-1c-1.3-6.4-4.9-8.5-14.4-8.5c-10.6 0-11.9 3.7-11.9 6.5c0 3.4 1.5 4.4 15.8 6.3c14.2 1.8 20.9 4.5 20.9 14.4c-0.1 10.2-8.4 16-23.1 16z" /><path fill-rule="evenodd" class="s1" d="m110.1 279.5c0 1.1-0.5 2.1-1.5 2.6c-0.9 0.5-2 0.5-3 0l-29.1-16.7c-1.8-1-3-3-3-5.1v-35.4c0-2.1-1.1-4.1-3-5.1l-12.4-7.2c-0.8-0.6-1.8-0.8-2.9-0.8c-1 0-2 0.2-3 0.8l-12.3 7.2c-1.9 1-3 3-3 5.1v35.4c0 2.1-1.2 4.1-3 5.1l-29.2 16.7c-0.8 0.5-1.9 0.5-2.9 0c-0.9-0.5-1.5-1.5-1.5-2.6l-0.1-75.8c0-2.1 1.2-4 3-5.1l49-28.2c0.8-0.4 1.8-0.8 2.7-0.8h0.5c0.9 0.1 1.8 0.4 2.6 0.8l49 28.2c1.9 1.1 3 3 3 5.1zm264.7-163.9c1.8 1.1 3 3 3 5.2v140.9c0 2.1-1.2 4.1-3 5.1l-49 28.3q-0.7 0.4-1.4 0.6q-0.8 0.2-1.6 0.2q-0.7 0-1.5-0.2q-0.7-0.2-1.4-0.6l-49-28.3c-1.9-1-3-3-3-5.1v-56.5c0-2.1 1.1-4 3-5.1l49-28.3q0.7-0.4 1.4-0.6q0.8-0.2 1.5-0.2q0.8 0 1.6 0.2q0.7 0.2 1.4 0.6l12.2 7q1.1 0.6 2.1 0c0.7-0.4 1.1-1.1 1.1-1.8v-75.1c0-1.1 0.5-2 1.5-2.6c0.8-0.4 1.9-0.4 2.9 0c0 0 29.2 16.3 29.2 16.3zm-33.8 108.1c0-0.5-0.2-1.1-0.6-1.3l-16.8-9.7q-0.2-0.1-0.4-0.1q-0.2-0.1-0.4-0.1q-0.2 0-0.3 0.1q-0.2 0-0.4 0.1l-16.8 9.7c-0.4 0.2-0.7 0.7-0.7 1.3v19.4c0 0.5 0.3 1 0.7 1.3l16.8 9.7q0.2 0.1 0.4 0.1q0.1 0.1 0.3 0.1q0.2 0 0.4-0.1q0.2 0 0.4-0.1l16.8-9.7c0.4-0.3 0.6-0.7 0.6-1.3zm138.5 16.5c-0.9 0.6-2.1 0.6-3 0c-0.9-0.4-1.5-1.5-1.5-2.5v-13.9c0-1-0.6-1.9-1.5-2.5l-15.4-8.8q-0.3-0.2-0.7-0.3q-0.4-0.1-0.8-0.1q-0.4 0-0.8 0.1q-0.3 0.1-0.7 0.3l-15.4 8.8c-0.9 0.4-1.5 1.5-1.5 2.5v17.7c0 1 0.6 2 1.5 2.5l49.3 28.4c0.9 0.4 1.5 1.5 1.5 2.5c0 1-0.6 2.1-1.5 2.5l-29.5 16.5c-1.7 1-3.9 1-5.8 0l-48.6-27.8c-1.9-1-3-3-3-5.1v-56.5c0-2.1 1.1-4 3-5.1l49-28.3q0.7-0.4 1.4-0.6q0.8-0.2 1.5-0.2q0.8 0 1.6 0.2q0.7 0.2 1.4 0.6l48.6 28.2c1.8 1.1 2.9 3 2.9 5.1v13.8c0 2-1 4-2.9 5z" /><path class="s0" d="m456.3 220.6q0.1-0.1 0.3-0.1q0.1-0.1 0.3-0.1q0.1 0 0.3 0.1q0.1 0 0.2 0.1l9.4 5.4c0.4 0.2 0.6 0.6 0.6 1.1v10.8c0 0.5-0.2 0.8-0.6 1.1l-9.4 5.4q-0.1 0.1-0.2 0.1q-0.2 0.1-0.3 0.1q-0.2 0-0.3-0.1q-0.2 0-0.3-0.1l-9.4-5.4c-0.3-0.3-0.5-0.6-0.5-1.1v-10.8c0-0.5 0.2-0.9 0.5-1.1z" /><path class="s2" d="m240.6 199.4c1.8 1.1 2.9 3 2.9 5.1v56.3c0 2.1-1 4-2.9 5.1l-48.6 28.1q-0.7 0.4-1.5 0.6q-0.7 0.2-1.5 0.2q-0.8 0-1.5-0.2q-0.7-0.2-1.4-0.6l-48.7-28.1c-1.7-1-2.9-3-2.9-5.1v-56.3c0-2.1 1.1-4 2.9-5.1l48.7-28q0.7-0.4 1.4-0.6q0.7-0.2 1.5-0.2q0.8 0 1.5 0.2q0.8 0.2 1.5 0.6z" /><g clip-path="url(#cp1)"><path class="s3" d="m190.4 170.7l-54.8 93.8c-1-1-1.5-2.3-1.5-3.7v-56.3c0-2.1 1.2-4 3.1-5.1l48.8-28c1.3-0.9 3-1 4.4-0.7zm51.7 29.8c1.1 1 1.8 2.5 1.8 4v56.3c0 2.1-1.2 4.1-3 5.1l-48.8 28.1c-0.5 0.2-0.9 0.4-1.4 0.6c0 0 51.4-94.1 51.4-94.1z" /><path class="s4" d="m242 200.6l-51.4 94.1c-1.5 0.4-3.1 0.2-4.5-0.6l-48.9-28.1q-0.2-0.1-0.5-0.3q-0.2-0.1-0.4-0.3q-0.2-0.2-0.4-0.4q-0.2-0.2-0.3-0.4l54.8-93.8q0.1 0 0.3 0.1q0.2 0.1 0.4 0.1q0.2 0.1 0.4 0.2q0.2 0.1 0.4 0.2l48.8 28c0.5 0.4 1 0.7 1.3 1.2z" /></g><g clip-path="url(#cp2)"><path class="s3" d="m243.5 262.1l-53.5-91.4q0.3 0 0.5 0.1q0.2 0 0.5 0.1q0.2 0.1 0.4 0.2q0.2 0.1 0.5 0.3l48.8 28c1.9 1.1 3.2 3 3.2 5.1v56.3c0 0.5-0.2 0.9-0.4 1.3zm-106-62.8l52.4 95.4q-2.1 0.3-3.8-0.7l-48.9-28.1c-1.7-1-3.1-3-3.1-5.1v-56.3c0-2.1 1.2-4 3.1-5.1c0 0 0.3-0.1 0.3-0.1z" /><path fill-rule="evenodd" class="s5" d="m184.7 161.4h-0.9l0.7-0.3z" /><path fill-rule="evenodd" class="s6" d="m192 294.1q-0.3 0.1-0.6 0.2q-0.2 0.1-0.5 0.2q-0.3 0.1-0.6 0.2q-0.2 0-0.5 0.1l-52.4-95.5l48.6-28c1.2-0.8 2.7-0.9 4.1-0.6l53.6 91.5c-0.4 1.5-1.5 2.9-2.8 3.7c0 0-48.9 28.2-48.9 28.2z" /><path fill-rule="evenodd" class="s7" d="m245 265.2v-0.8l0.4 0.6c0 0-0.4 0.2-0.4 0.2z" /><path fill-rule="evenodd" class="s8" d="m243.5 262.1l1.4 2.3v0.7l-54.1 31.3l-0.9-1.7q0.3-0.1 0.6-0.1q0.2-0.1 0.5-0.2q0.3-0.1 0.6-0.2q0.2-0.1 0.5-0.2l48.8-28.1c1.3-0.8 2.4-2.2 2.6-3.8z" /><path fill-rule="evenodd" class="s9" d="m243.5 262.1l1.4 2.3v0.7l-54.1 31.3l-0.9-1.7q0.3-0.1 0.6-0.1q0.2-0.1 0.5-0.2q0.3-0.1 0.6-0.2q0.2-0.1 0.5-0.2l48.8-28.1c1.3-0.8 2.4-2.2 2.6-3.8z" /></g></svg>